<?xml version="1.0" encoding="UTF-8" standalone="no"?>
<svg
   width="358.70mm"
   height="314.20mm"
   viewBox="0.0 0.0 358.70 314.20"
   version="1.1"
   id="svg480"
   sodipodi:docname="220826_ElectronicsBox_2.svg"
   inkscape:version="1.2.1 (ef4d3fba62, 2022-07-19, custom)"
   xmlns:inkscape="http://www.inkscape.org/namespaces/inkscape"
   xmlns:sodipodi="http://sodipodi.sourceforge.net/DTD/sodipodi-0.dtd"
   xmlns="http://www.w3.org/2000/svg"
   xmlns:svg="http://www.w3.org/2000/svg"
   xmlns:rdf="http://www.w3.org/1999/02/22-rdf-syntax-ns#"
   xmlns:cc="http://creativecommons.org/ns#"
   xmlns:dc="http://purl.org/dc/elements/1.1/">
  <defs
     id="defs484" />
  <sodipodi:namedview
     id="namedview482"
     pagecolor="#ffffff"
     bordercolor="#666666"
     borderopacity="1.0"
     inkscape:showpageshadow="2"
     inkscape:pageopacity="0.0"
     inkscape:pagecheckerboard="0"
     inkscape:deskcolor="#d1d1d1"
     inkscape:document-units="mm"
     showgrid="true"
     inkscape:zoom="1.2313792"
     inkscape:cx="590.39489"
     inkscape:cy="-152.26828"
     inkscape:window-width="1920"
     inkscape:window-height="1056"
     inkscape:window-x="1280"
     inkscape:window-y="0"
     inkscape:window-maximized="1"
     inkscape:current-layer="svg480">
    <inkscape:grid
       type="xygrid"
       id="grid953" />
  </sodipodi:namedview>
  <!--
ElectronicsBox - Closed box with screw on top and mounting holes

Created with Boxes.py (https://festi.info/boxes.py)
Creation date: 2022-08-26 13:19:03
Command line (remove spaces between dashes): boxes ElectronicsBox - -FingerJoint_angle=90.0 - -FingerJoint_style=rectangular - -FingerJoint_surroundingspaces=2.0 - -FingerJoint_edge_width=1.0 - -FingerJoint_extra_length=0.0 - -FingerJoint_finger=2.0 - -FingerJoint_play=0.0 - -FingerJoint_space=2.0 - -FingerJoint_width=1.0 - -x=140.0 - -y=200.0 - -h=25.0 - -outside=0 - -outside=1 - -triangle=25.0 - -d1=2.0 - -d2=3.0 - -d3=3.0 - -outsidemounts=0 - -holedist=7.0 - -thickness=4.0 - -format=svg - -tabs=0.0 - -debug=0 - -labels=0 - -labels=1 - -reference=100 - -inner_corners=corner - -burn=0.1
Url: http://www.festi.info/ElectronicsBox?FingerJoint_angle=90.0&FingerJoint_style=rectangular&FingerJoint_surroundingspaces=2.0&FingerJoint_edge_width=1.0&FingerJoint_extra_length=0.0&FingerJoint_finger=2.0&FingerJoint_play=0.0&FingerJoint_space=2.0&FingerJoint_width=1.0&x=140.0&y=200.0&h=25.0&outside=0&outside=1&triangle=25.0&d1=2.0&d2=3.0&d3=3.0&outsidemounts=0&holedist=7.0&thickness=4.0&format=svg&tabs=0.0&debug=0&labels=0&labels=1&reference=100&inner_corners=corner&burn=0.1&render=1
SettingsUrl: http://www.festi.info/ElectronicsBox?FingerJoint_angle=90.0&FingerJoint_style=rectangular&FingerJoint_surroundingspaces=2.0&FingerJoint_edge_width=1.0&FingerJoint_extra_length=0.0&FingerJoint_finger=2.0&FingerJoint_play=0.0&FingerJoint_space=2.0&FingerJoint_width=1.0&x=140.0&y=200.0&h=25.0&outside=0&outside=1&triangle=25.0&d1=2.0&d2=3.0&d3=3.0&outsidemounts=0&holedist=7.0&thickness=4.0&format=svg&tabs=0.0&debug=0&labels=0&labels=1&reference=100&inner_corners=corner&burn=0.1
-->
  <title
     id="title392">ElectronicsBox</title>
  <metadata
     id="metadata394">
    <rdf:RDF>
      <cc:Work>
        <dc:title>Box - ElectronicsBox</dc:title>
        <dc:date>2022-08-26 13:19:03</dc:date>
        <dc:source>http://www.festi.info/ElectronicsBox?FingerJoint_angle=90.0&amp;FingerJoint_style=rectangular&amp;FingerJoint_surroundingspaces=2.0&amp;FingerJoint_edge_width=1.0&amp;FingerJoint_extra_length=0.0&amp;FingerJoint_finger=2.0&amp;FingerJoint_play=0.0&amp;FingerJoint_space=2.0&amp;FingerJoint_width=1.0&amp;x=140.0&amp;y=200.0&amp;h=25.0&amp;outside=0&amp;outside=1&amp;triangle=25.0&amp;d1=2.0&amp;d2=3.0&amp;d3=3.0&amp;outsidemounts=0&amp;holedist=7.0&amp;thickness=4.0&amp;format=svg&amp;tabs=0.0&amp;debug=0&amp;labels=0&amp;labels=1&amp;reference=100&amp;inner_corners=corner&amp;burn=0.1&amp;render=1</dc:source>
        <dc:description>Closed box with screw on top and mounting holes

Created with Boxes.py (https://festi.info/boxes.py)
Command line: boxes ElectronicsBox --FingerJoint_angle=90.0 --FingerJoint_style=rectangular --FingerJoint_surroundingspaces=2.0 --FingerJoint_edge_width=1.0 --FingerJoint_extra_length=0.0 --FingerJoint_finger=2.0 --FingerJoint_play=0.0 --FingerJoint_space=2.0 --FingerJoint_width=1.0 --x=140.0 --y=200.0 --h=25.0 --outside=0 --outside=1 --triangle=25.0 --d1=2.0 --d2=3.0 --d3=3.0 --outsidemounts=0 --holedist=7.0 --thickness=4.0 --format=svg --tabs=0.0 --debug=0 --labels=0 --labels=1 --reference=100 --inner_corners=corner --burn=0.1
Url: http://www.festi.info/ElectronicsBox?FingerJoint_angle=90.0&amp;FingerJoint_style=rectangular&amp;FingerJoint_surroundingspaces=2.0&amp;FingerJoint_edge_width=1.0&amp;FingerJoint_extra_length=0.0&amp;FingerJoint_finger=2.0&amp;FingerJoint_play=0.0&amp;FingerJoint_space=2.0&amp;FingerJoint_width=1.0&amp;x=140.0&amp;y=200.0&amp;h=25.0&amp;outside=0&amp;outside=1&amp;triangle=25.0&amp;d1=2.0&amp;d2=3.0&amp;d3=3.0&amp;outsidemounts=0&amp;holedist=7.0&amp;thickness=4.0&amp;format=svg&amp;tabs=0.0&amp;debug=0&amp;labels=0&amp;labels=1&amp;reference=100&amp;inner_corners=corner&amp;burn=0.1&amp;render=1
SettingsUrl: http://www.festi.info/ElectronicsBox?FingerJoint_angle=90.0&amp;FingerJoint_style=rectangular&amp;FingerJoint_surroundingspaces=2.0&amp;FingerJoint_edge_width=1.0&amp;FingerJoint_extra_length=0.0&amp;FingerJoint_finger=2.0&amp;FingerJoint_play=0.0&amp;FingerJoint_space=2.0&amp;FingerJoint_width=1.0&amp;x=140.0&amp;y=200.0&amp;h=25.0&amp;outside=0&amp;outside=1&amp;triangle=25.0&amp;d1=2.0&amp;d2=3.0&amp;d3=3.0&amp;outsidemounts=0&amp;holedist=7.0&amp;thickness=4.0&amp;format=svg&amp;tabs=0.0&amp;debug=0&amp;labels=0&amp;labels=1&amp;reference=100&amp;inner_corners=corner&amp;burn=0.1
</dc:description>
      </cc:Work>
    </rdf:RDF>
  </metadata>
  <g
     id="p-0"
     style="fill:none;stroke-linecap:round;stroke-linejoin:round;">
    <path
       d="M 10.400 304.200 H 110.400 V 294.200 H 10.400 V 304.200 Z"
       stroke="rgb(0,0,0)"
       stroke-width="0.20"
       id="path396" />
    <text
       transform="matrix( 1.000 0.000 0.000 1.000 60.400 295.200 )"
       style="font-family: sans-serif ; font-weight: normal; font-style: normal; fill: rgb(255,0,0)"
       font-size="8px"
       text-anchor="middle"
       dominant-baseline="hanging"
       id="text398">100mm, burn:0.10mm</text>
  </g>
  <g
     id="p-1"
     style="fill:none;stroke-linecap:round;stroke-linejoin:round;">
    <path
       d="M 26.900 274.800 H 23.000 V 271.000 H 30.800 V 274.800 H 26.900 Z"
       stroke="rgb(0,0,255)"
       stroke-width="0.20"
       id="path401" />
    <path
       d="M 133.900 271.000 H 137.800 V 274.800 H 130.000 V 271.000 H 133.900 Z"
       stroke="rgb(0,0,255)"
       stroke-width="0.20"
       id="path403" />
    <text
       transform="matrix( 1.000 0.000 0.000 1.000 80.400 277.500 )"
       style="font-family: sans-serif ; font-weight: normal; font-style: normal; fill: rgb(255,0,0)"
       font-size="4px"
       text-anchor="middle"
       dominant-baseline="hanging"
       id="text405">Wall 1</text>
    <path
       d="M 14.400 288.000 H 28.300 V 291.900 C 28.300 291.955 28.345 292.000 28.400 292.000 H 36.400 C 36.455 292.000 36.500 291.955 36.500 291.900 V 288.000 H 44.300 V 291.900 C 44.300 291.955 44.345 292.000 44.400 292.000 H 52.400 C 52.455 292.000 52.500 291.955 52.500 291.900 V 288.000 H 60.300 V 291.900 C 60.300 291.955 60.345 292.000 60.400 292.000 H 68.400 C 68.455 292.000 68.500 291.955 68.500 291.900 V 288.000 H 76.300 V 291.900 C 76.300 291.955 76.345 292.000 76.400 292.000 H 84.400 C 84.455 292.000 84.500 291.955 84.500 291.900 V 288.000 H 92.300 V 291.900 C 92.300 291.955 92.345 292.000 92.400 292.000 H 100.400 C 100.455 292.000 100.500 291.955 100.500 291.900 V 288.000 H 108.300 V 291.900 C 108.300 291.955 108.345 292.000 108.400 292.000 H 116.400 C 116.455 292.000 116.500 291.955 116.500 291.900 V 288.000 H 124.300 V 291.900 C 124.300 291.955 124.345 292.000 124.400 292.000 H 132.400 C 132.455 292.000 132.500 291.955 132.500 291.900 V 288.000 H 146.400 H 150.400 C 150.455 288.000 150.500 287.955 150.500 287.900 V 277.400 V 266.900 C 150.500 266.845 150.455 266.800 150.400 266.800 H 146.400 H 14.400 H 10.400 C 10.345 266.800 10.300 266.845 10.300 266.900 V 277.400 V 287.900 C 10.300 287.955 10.345 288.000 10.400 288.000 H 14.400"
       stroke="rgb(0,0,0)"
       stroke-width="0.20"
       id="path407" />
  </g>
  <g
     id="p-2"
     style="fill:none;stroke-linecap:round;stroke-linejoin:round;">
    <path
       d="M 169.100 274.800 H 165.200 V 271.000 H 173.000 V 274.800 H 169.100 Z"
       stroke="rgb(0,0,255)"
       stroke-width="0.20"
       id="path410" />
    <path
       d="M 336.100 271.000 H 340.000 V 274.800 H 332.200 V 271.000 H 336.100 Z"
       stroke="rgb(0,0,255)"
       stroke-width="0.20"
       id="path412" />
    <text
       transform="matrix( 1.000 0.000 0.000 1.000 252.600 277.500 )"
       style="font-family: sans-serif ; font-weight: normal; font-style: normal; fill: rgb(255,0,0)"
       font-size="4px"
       text-anchor="middle"
       dominant-baseline="hanging"
       id="text414">Wall 2</text>
    <path
       d="M 156.600 288.000 H 168.500 V 291.900 C 168.500 291.955 168.545 292.000 168.600 292.000 H 176.600 C 176.655 292.000 176.700 291.955 176.700 291.900 V 288.000 H 184.500 V 291.900 C 184.500 291.955 184.545 292.000 184.600 292.000 H 192.600 C 192.655 292.000 192.700 291.955 192.700 291.900 V 288.000 H 200.500 V 291.900 C 200.500 291.955 200.545 292.000 200.600 292.000 H 208.600 C 208.655 292.000 208.700 291.955 208.700 291.900 V 288.000 H 216.500 V 291.900 C 216.500 291.955 216.545 292.000 216.600 292.000 H 224.600 C 224.655 292.000 224.700 291.955 224.700 291.900 V 288.000 H 232.500 V 291.900 C 232.500 291.955 232.545 292.000 232.600 292.000 H 240.600 C 240.655 292.000 240.700 291.955 240.700 291.900 V 288.000 H 248.500 V 291.900 C 248.500 291.955 248.545 292.000 248.600 292.000 H 256.600 C 256.655 292.000 256.700 291.955 256.700 291.900 V 288.000 H 264.500 V 291.900 C 264.500 291.955 264.545 292.000 264.600 292.000 H 272.600 C 272.655 292.000 272.700 291.955 272.700 291.900 V 288.000 H 280.500 V 291.900 C 280.500 291.955 280.545 292.000 280.600 292.000 H 288.600 C 288.655 292.000 288.700 291.955 288.700 291.900 V 288.000 H 296.500 V 291.900 C 296.500 291.955 296.545 292.000 296.600 292.000 H 304.600 C 304.655 292.000 304.700 291.955 304.700 291.900 V 288.000 H 312.500 V 291.900 C 312.500 291.955 312.545 292.000 312.600 292.000 H 320.600 C 320.655 292.000 320.700 291.955 320.700 291.900 V 288.000 H 328.500 V 291.900 C 328.500 291.955 328.545 292.000 328.600 292.000 H 336.600 C 336.655 292.000 336.700 291.955 336.700 291.900 V 288.000 H 348.600 C 348.655 288.000 348.700 287.955 348.700 287.900 V 277.400 V 266.900 C 348.700 266.845 348.655 266.800 348.600 266.800 H 156.600 C 156.545 266.800 156.500 266.845 156.500 266.900 V 277.400 V 287.900 C 156.500 287.955 156.545 288.000 156.600 288.000"
       stroke="rgb(0,0,0)"
       stroke-width="0.20"
       id="path416" />
  </g>
  <g
     id="p-3"
     style="fill:none;stroke-linecap:round;stroke-linejoin:round;">
    <path
       d="M 169.100 247.600 H 165.200 V 243.800 H 173.000 V 247.600 H 169.100 Z"
       stroke="rgb(0,0,255)"
       stroke-width="0.20"
       id="path419" />
    <path
       d="M 336.100 243.800 H 340.000 V 247.600 H 332.200 V 243.800 H 336.100 Z"
       stroke="rgb(0,0,255)"
       stroke-width="0.20"
       id="path421" />
    <text
       transform="matrix( 1.000 0.000 0.000 1.000 252.600 250.300 )"
       style="font-family: sans-serif ; font-weight: normal; font-style: normal; fill: rgb(255,0,0)"
       font-size="4px"
       text-anchor="middle"
       dominant-baseline="hanging"
       id="text423">Wall 4</text>
    <path
       d="M 156.600 260.800 H 168.500 V 264.700 C 168.500 264.755 168.545 264.800 168.600 264.800 H 176.600 C 176.655 264.800 176.700 264.755 176.700 264.700 V 260.800 H 184.500 V 264.700 C 184.500 264.755 184.545 264.800 184.600 264.800 H 192.600 C 192.655 264.800 192.700 264.755 192.700 264.700 V 260.800 H 200.500 V 264.700 C 200.500 264.755 200.545 264.800 200.600 264.800 H 208.600 C 208.655 264.800 208.700 264.755 208.700 264.700 V 260.800 H 216.500 V 264.700 C 216.500 264.755 216.545 264.800 216.600 264.800 H 224.600 C 224.655 264.800 224.700 264.755 224.700 264.700 V 260.800 H 232.500 V 264.700 C 232.500 264.755 232.545 264.800 232.600 264.800 H 240.600 C 240.655 264.800 240.700 264.755 240.700 264.700 V 260.800 H 248.500 V 264.700 C 248.500 264.755 248.545 264.800 248.600 264.800 H 256.600 C 256.655 264.800 256.700 264.755 256.700 264.700 V 260.800 H 264.500 V 264.700 C 264.500 264.755 264.545 264.800 264.600 264.800 H 272.600 C 272.655 264.800 272.700 264.755 272.700 264.700 V 260.800 H 280.500 V 264.700 C 280.500 264.755 280.545 264.800 280.600 264.800 H 288.600 C 288.655 264.800 288.700 264.755 288.700 264.700 V 260.800 H 296.500 V 264.700 C 296.500 264.755 296.545 264.800 296.600 264.800 H 304.600 C 304.655 264.800 304.700 264.755 304.700 264.700 V 260.800 H 312.500 V 264.700 C 312.500 264.755 312.545 264.800 312.600 264.800 H 320.600 C 320.655 264.800 320.700 264.755 320.700 264.700 V 260.800 H 328.500 V 264.700 C 328.500 264.755 328.545 264.800 328.600 264.800 H 336.600 C 336.655 264.800 336.700 264.755 336.700 264.700 V 260.800 H 348.600 C 348.655 260.800 348.700 260.755 348.700 260.700 V 250.200 V 239.700 C 348.700 239.645 348.655 239.600 348.600 239.600 H 156.600 C 156.545 239.600 156.500 239.645 156.500 239.700 V 250.200 V 260.700 C 156.500 260.755 156.545 260.800 156.600 260.800"
       stroke="rgb(0,0,0)"
       stroke-width="0.20"
       id="path425" />
  </g>
  <g
     id="p-4"
     style="fill:none;stroke-linecap:round;stroke-linejoin:round;">
    <path
       d="M 26.900 247.600 H 23.000 V 243.800 H 30.800 V 247.600 H 26.900 Z"
       stroke="rgb(0,0,255)"
       stroke-width="0.20"
       id="path428" />
    <path
       d="M 133.900 243.800 H 137.800 V 247.600 H 130.000 V 243.800 H 133.900 Z"
       stroke="rgb(0,0,255)"
       stroke-width="0.20"
       id="path430" />
    <text
       transform="matrix( 1.000 0.000 0.000 1.000 80.400 250.300 )"
       style="font-family: sans-serif ; font-weight: normal; font-style: normal; fill: rgb(255,0,0)"
       font-size="4px"
       text-anchor="middle"
       dominant-baseline="hanging"
       id="text432">Wall 3</text>
    <path
       d="M 14.400 260.800 H 28.300 V 264.700 C 28.300 264.755 28.345 264.800 28.400 264.800 H 36.400 C 36.455 264.800 36.500 264.755 36.500 264.700 V 260.800 H 44.300 V 264.700 C 44.300 264.755 44.345 264.800 44.400 264.800 H 52.400 C 52.455 264.800 52.500 264.755 52.500 264.700 V 260.800 H 60.300 V 264.700 C 60.300 264.755 60.345 264.800 60.400 264.800 H 68.400 C 68.455 264.800 68.500 264.755 68.500 264.700 V 260.800 H 76.300 V 264.700 C 76.300 264.755 76.345 264.800 76.400 264.800 H 84.400 C 84.455 264.800 84.500 264.755 84.500 264.700 V 260.800 H 92.300 V 264.700 C 92.300 264.755 92.345 264.800 92.400 264.800 H 100.400 C 100.455 264.800 100.500 264.755 100.500 264.700 V 260.800 H 108.300 V 264.700 C 108.300 264.755 108.345 264.800 108.400 264.800 H 116.400 C 116.455 264.800 116.500 264.755 116.500 264.700 V 260.800 H 124.300 V 264.700 C 124.300 264.755 124.345 264.800 124.400 264.800 H 132.400 C 132.455 264.800 132.500 264.755 132.500 264.700 V 260.800 H 146.400 H 150.400 C 150.455 260.800 150.500 260.755 150.500 260.700 V 250.200 V 239.700 C 150.500 239.645 150.455 239.600 150.400 239.600 H 146.400 H 14.400 H 10.400 C 10.345 239.600 10.300 239.645 10.300 239.700 V 250.200 V 260.700 C 10.300 260.755 10.345 260.800 10.400 260.800 H 14.400"
       stroke="rgb(0,0,0)"
       stroke-width="0.20"
       id="path434" />
  </g>
  <g
     id="p-5"
     style="fill:none;stroke-linecap:round;stroke-linejoin:round;">
    <path
       d="M 22.800 226.500 C 22.800 226.768 22.723 227.031 22.578 227.257 C 22.433 227.483 22.226 227.662 21.982 227.773 C 21.737 227.885 21.466 227.924 21.201 227.886 C 20.935 227.848 20.686 227.734 20.483 227.558 C 20.280 227.382 20.132 227.152 20.057 226.894 C 19.981 226.637 19.981 226.363 20.057 226.106 C 20.132 225.848 20.280 225.618 20.483 225.442 C 20.686 225.266 20.935 225.152 21.201 225.114 C 21.466 225.076 21.737 225.115 21.982 225.227 C 22.226 225.338 22.433 225.517 22.578 225.743 C 22.723 225.969 22.800 226.232 22.800 226.500 Z"
       stroke="rgb(0,0,255)"
       stroke-width="0.20"
       id="path437" />
    <text
       transform="matrix( 1.000 0.000 0.000 1.000 80.400 135.600 )"
       style="font-family: sans-serif ; font-weight: normal; font-style: normal; fill: rgb(255,0,0)"
       font-size="4px"
       text-anchor="middle"
       dominant-baseline="hanging"
       id="text439">Bottom</text>
    <path
       d="M 14.400 237.600 H 28.400 C 28.455 237.600 28.500 237.555 28.500 237.500 V 233.600 H 36.300 V 237.500 C 36.300 237.555 36.345 237.600 36.400 237.600 H 44.400 C 44.455 237.600 44.500 237.555 44.500 237.500 V 233.600 H 52.300 V 237.500 C 52.300 237.555 52.345 237.600 52.400 237.600 H 60.400 C 60.455 237.600 60.500 237.555 60.500 237.500 V 233.600 H 68.300 V 237.500 C 68.300 237.555 68.345 237.600 68.400 237.600 H 76.400 C 76.455 237.600 76.500 237.555 76.500 237.500 V 233.600 H 84.300 V 237.500 C 84.300 237.555 84.345 237.600 84.400 237.600 H 92.400 C 92.455 237.600 92.500 237.555 92.500 237.500 V 233.600 H 100.300 V 237.500 C 100.300 237.555 100.345 237.600 100.400 237.600 H 108.400 C 108.455 237.600 108.500 237.555 108.500 237.500 V 233.600 H 116.300 V 237.500 C 116.300 237.555 116.345 237.600 116.400 237.600 H 124.400 C 124.455 237.600 124.500 237.555 124.500 237.500 V 233.600 H 132.300 V 237.500 C 132.300 237.555 132.345 237.600 132.400 237.600 H 146.400 H 150.400 C 150.455 237.600 150.500 237.555 150.500 237.500 V 233.500 V 221.500 C 150.500 221.445 150.455 221.400 150.400 221.400 H 146.500 V 213.600 H 150.400 C 150.455 213.600 150.500 213.555 150.500 213.500 V 205.500 C 150.500 205.445 150.455 205.400 150.400 205.400 H 146.500 V 197.600 H 150.400 C 150.455 197.600 150.500 197.555 150.500 197.500 V 189.500 C 150.500 189.445 150.455 189.400 150.400 189.400 H 146.500 V 181.600 H 150.400 C 150.455 181.600 150.500 181.555 150.500 181.500 V 173.500 C 150.500 173.445 150.455 173.400 150.400 173.400 H 146.500 V 165.600 H 150.400 C 150.455 165.600 150.500 165.555 150.500 165.500 V 157.500 C 150.500 157.445 150.455 157.400 150.400 157.400 H 146.500 V 149.600 H 150.400 C 150.455 149.600 150.500 149.555 150.500 149.500 V 141.500 C 150.500 141.445 150.455 141.400 150.400 141.400 H 146.500 V 133.600 H 150.400 C 150.455 133.600 150.500 133.555 150.500 133.500 V 125.500 C 150.500 125.445 150.455 125.400 150.400 125.400 H 146.500 V 117.600 H 150.400 C 150.455 117.600 150.500 117.555 150.500 117.500 V 109.500 C 150.500 109.445 150.455 109.400 150.400 109.400 H 146.500 V 101.600 H 150.400 C 150.455 101.600 150.500 101.555 150.500 101.500 V 93.500 C 150.500 93.445 150.455 93.400 150.400 93.400 H 146.500 V 85.600 H 150.400 C 150.455 85.600 150.500 85.555 150.500 85.500 V 77.500 C 150.500 77.445 150.455 77.400 150.400 77.400 H 146.500 V 69.600 H 150.400 C 150.455 69.600 150.500 69.555 150.500 69.500 V 61.500 C 150.500 61.445 150.455 61.400 150.400 61.400 H 146.500 V 53.600 H 150.400 C 150.455 53.600 150.500 53.555 150.500 53.500 V 41.500 V 37.500 C 150.500 37.445 150.455 37.400 150.400 37.400 H 146.400 H 132.400 C 132.345 37.400 132.300 37.445 132.300 37.500 V 41.400 H 124.500 V 37.500 C 124.500 37.445 124.455 37.400 124.400 37.400 H 116.400 C 116.345 37.400 116.300 37.445 116.300 37.500 V 41.400 H 108.500 V 37.500 C 108.500 37.445 108.455 37.400 108.400 37.400 H 100.400 C 100.345 37.400 100.300 37.445 100.300 37.500 V 41.400 H 92.500 V 37.500 C 92.500 37.445 92.455 37.400 92.400 37.400 H 84.400 C 84.345 37.400 84.300 37.445 84.300 37.500 V 41.400 H 76.500 V 37.500 C 76.500 37.445 76.455 37.400 76.400 37.400 H 68.400 C 68.345 37.400 68.300 37.445 68.300 37.500 V 41.400 H 60.500 V 37.500 C 60.500 37.445 60.455 37.400 60.400 37.400 H 52.400 C 52.345 37.400 52.300 37.445 52.300 37.500 V 41.400 H 44.500 V 37.500 C 44.500 37.445 44.455 37.400 44.400 37.400 H 36.400 C 36.345 37.400 36.300 37.445 36.300 37.500 V 41.400 H 28.500 V 37.500 C 28.500 37.445 28.455 37.400 28.400 37.400 H 14.400 H 10.400 C 10.345 37.400 10.300 37.445 10.300 37.500 V 41.500 V 53.500 C 10.300 53.555 10.345 53.600 10.400 53.600 H 14.300 V 61.400 H 10.400 C 10.345 61.400 10.300 61.445 10.300 61.500 V 69.500 C 10.300 69.555 10.345 69.600 10.400 69.600 H 14.300 V 77.400 H 10.400 C 10.345 77.400 10.300 77.445 10.300 77.500 V 85.500 C 10.300 85.555 10.345 85.600 10.400 85.600 H 14.300 V 93.400 H 10.400 C 10.345 93.400 10.300 93.445 10.300 93.500 V 101.500 C 10.300 101.555 10.345 101.600 10.400 101.600 H 14.300 V 109.400 H 10.400 C 10.345 109.400 10.300 109.445 10.300 109.500 V 117.500 C 10.300 117.555 10.345 117.600 10.400 117.600 H 14.300 V 125.400 H 10.400 C 10.345 125.400 10.300 125.445 10.300 125.500 V 133.500 C 10.300 133.555 10.345 133.600 10.400 133.600 H 14.300 V 141.400 H 10.400 C 10.345 141.400 10.300 141.445 10.300 141.500 V 149.500 C 10.300 149.555 10.345 149.600 10.400 149.600 H 14.300 V 157.400 H 10.400 C 10.345 157.400 10.300 157.445 10.300 157.500 V 165.500 C 10.300 165.555 10.345 165.600 10.400 165.600 H 14.300 V 173.400 H 10.400 C 10.345 173.400 10.300 173.445 10.300 173.500 V 181.500 C 10.300 181.555 10.345 181.600 10.400 181.600 H 14.300 V 189.400 H 10.400 C 10.345 189.400 10.300 189.445 10.300 189.500 V 197.500 C 10.300 197.555 10.345 197.600 10.400 197.600 H 14.300 V 205.400 H 10.400 C 10.345 205.400 10.300 205.445 10.300 205.500 V 213.500 C 10.300 213.555 10.345 213.600 10.400 213.600 H 14.300 V 221.400 H 10.400 C 10.345 221.400 10.300 221.445 10.300 221.500 V 233.500 V 237.500 C 10.300 237.555 10.345 237.600 10.400 237.600 H 14.400"
       stroke="rgb(0,0,0)"
       stroke-width="0.20"
       id="path441" />
    <path
       d="M 139.400 225.100 C 139.668 225.100 139.931 225.177 140.157 225.322 C 140.383 225.467 140.562 225.674 140.673 225.918 C 140.785 226.163 140.824 226.434 140.786 226.699 C 140.748 226.965 140.634 227.214 140.458 227.417 C 140.282 227.620 140.052 227.768 139.794 227.843 C 139.537 227.919 139.263 227.919 139.006 227.843 C 138.748 227.768 138.518 227.620 138.342 227.417 C 138.166 227.214 138.052 226.965 138.014 226.699 C 137.976 226.434 138.015 226.163 138.127 225.918 C 138.238 225.674 138.417 225.467 138.643 225.322 C 138.869 225.177 139.132 225.100 139.400 225.100 Z"
       stroke="rgb(0,0,255)"
       stroke-width="0.20"
       id="path443" />
    <path
       d="M 138.000 48.500 C 138.000 48.232 138.077 47.969 138.222 47.743 C 138.367 47.517 138.574 47.338 138.818 47.227 C 139.063 47.115 139.334 47.076 139.599 47.114 C 139.865 47.152 140.114 47.266 140.317 47.442 C 140.520 47.618 140.668 47.848 140.743 48.106 C 140.819 48.363 140.819 48.637 140.743 48.894 C 140.668 49.152 140.520 49.382 140.317 49.558 C 140.114 49.734 139.865 49.848 139.599 49.886 C 139.334 49.924 139.063 49.885 138.818 49.773 C 138.574 49.662 138.367 49.483 138.222 49.257 C 138.077 49.031 138.000 48.768 138.000 48.500 Z"
       stroke="rgb(0,0,255)"
       stroke-width="0.20"
       id="path445" />
    <path
       d="M 21.400 49.900 C 21.132 49.900 20.869 49.823 20.643 49.678 C 20.417 49.533 20.238 49.326 20.127 49.082 C 20.015 48.837 19.976 48.566 20.014 48.301 C 20.052 48.035 20.166 47.786 20.342 47.583 C 20.518 47.380 20.748 47.232 21.006 47.157 C 21.263 47.081 21.537 47.081 21.794 47.157 C 22.052 47.232 22.282 47.380 22.458 47.583 C 22.634 47.786 22.748 48.035 22.786 48.301 C 22.824 48.566 22.785 48.837 22.673 49.082 C 22.562 49.326 22.383 49.533 22.157 49.678 C 21.931 49.823 21.668 49.900 21.400 49.900 Z"
       stroke="rgb(0,0,255)"
       stroke-width="0.20"
       id="path447" />
  </g>
  <g
     id="p-6"
     style="fill:none;stroke-linecap:round;stroke-linejoin:round;">
    <path
       d="M 162.333 229.167 C 162.333 229.435 162.256 229.698 162.111 229.924 C 161.966 230.149 161.759 230.329 161.515 230.440 C 161.271 230.552 161.000 230.591 160.734 230.552 C 160.468 230.514 160.219 230.400 160.017 230.225 C 159.814 230.049 159.666 229.819 159.590 229.561 C 159.514 229.304 159.514 229.030 159.590 228.772 C 159.666 228.515 159.814 228.284 160.017 228.109 C 160.219 227.933 160.468 227.819 160.734 227.781 C 161.000 227.743 161.271 227.782 161.515 227.893 C 161.759 228.005 161.966 228.184 162.111 228.410 C 162.256 228.636 162.333 228.898 162.333 229.167 Z"
       stroke="rgb(0,0,255)"
       stroke-width="0.20"
       id="path450" />
    <text
       transform="matrix( 1.000 0.000 0.000 1.000 218.600 139.600 )"
       style="font-family: sans-serif ; font-weight: normal; font-style: normal; fill: rgb(255,0,0)"
       font-size="4px"
       text-anchor="middle"
       dominant-baseline="hanging"
       id="text452">Top</text>
    <path
       d="M 152.600 237.600 H 284.600 C 284.655 237.600 284.700 237.555 284.700 237.500 V 45.500 C 284.700 45.445 284.655 45.400 284.600 45.400 H 152.600 C 152.545 45.400 152.500 45.445 152.500 45.500 V 237.500 C 152.500 237.555 152.545 237.600 152.600 237.600"
       stroke="rgb(0,0,0)"
       stroke-width="0.20"
       id="path454" />
    <path
       d="M 276.267 227.767 C 276.535 227.767 276.798 227.844 277.024 227.989 C 277.249 228.134 277.429 228.341 277.540 228.585 C 277.652 228.829 277.691 229.100 277.652 229.366 C 277.614 229.632 277.500 229.881 277.325 230.083 C 277.149 230.286 276.919 230.434 276.661 230.510 C 276.404 230.586 276.130 230.586 275.872 230.510 C 275.615 230.434 275.384 230.286 275.209 230.083 C 275.033 229.881 274.919 229.632 274.881 229.366 C 274.843 229.100 274.882 228.829 274.993 228.585 C 275.105 228.341 275.284 228.134 275.510 227.989 C 275.736 227.844 275.998 227.767 276.267 227.767 Z"
       stroke="rgb(0,0,255)"
       stroke-width="0.20"
       id="path456" />
    <path
       d="M 274.867 53.833 C 274.867 53.565 274.944 53.302 275.089 53.076 C 275.234 52.851 275.441 52.671 275.685 52.560 C 275.929 52.448 276.200 52.409 276.466 52.448 C 276.732 52.486 276.981 52.600 277.183 52.775 C 277.386 52.951 277.534 53.181 277.610 53.439 C 277.686 53.696 277.686 53.970 277.610 54.228 C 277.534 54.485 277.386 54.716 277.183 54.891 C 276.981 55.067 276.732 55.181 276.466 55.219 C 276.200 55.257 275.929 55.218 275.685 55.107 C 275.441 54.995 275.234 54.816 275.089 54.590 C 274.944 54.364 274.867 54.102 274.867 53.833 Z"
       stroke="rgb(0,0,255)"
       stroke-width="0.20"
       id="path458" />
    <path
       d="M 160.933 55.233 C 160.665 55.233 160.402 55.156 160.176 55.011 C 159.951 54.866 159.771 54.659 159.660 54.415 C 159.548 54.171 159.509 53.900 159.548 53.634 C 159.586 53.368 159.700 53.119 159.875 52.917 C 160.051 52.714 160.281 52.566 160.539 52.490 C 160.796 52.414 161.070 52.414 161.328 52.490 C 161.585 52.566 161.816 52.714 161.991 52.917 C 162.167 53.119 162.281 53.368 162.319 53.634 C 162.357 53.900 162.318 54.171 162.207 54.415 C 162.095 54.659 161.916 54.866 161.690 55.011 C 161.464 55.156 161.202 55.233 160.933 55.233 Z"
       stroke="rgb(0,0,255)"
       stroke-width="0.20"
       id="path460" />
  </g>
  <path
     d="m 162.823,39.4 h 8.4 v 3.9 c 0,0.055 0.044,0.1 0.1,0.1 h 8 c 0.055,0 0.1,-0.045 0.1,-0.1 v -3.9 h 8.4 c 0.055,0 0.1,-0.045 0.1,-0.1 v -8.4 h 3.9 c 0.055,0 0.1,-0.045 0.1,-0.1 v -8 c 0,-0.055 -0.045,-0.1 -0.1,-0.1 h -3.9 v -8.4 c 0,-0.055 -0.045,-0.1 -0.1,-0.1 -0.027,0 -0.052,0.011 -0.071,0.029 l -25,25 c -0.019,0.019 -0.029,0.044 -0.029,0.071 0,0.055 0.044,0.1 0.1,0.1 z"
     stroke="#000000"
     stroke-width="0.2"
     id="path463"
     style="fill:none;stroke-linecap:round;stroke-linejoin:round" />
  <path
     d="m 179.489,30.067 c 0.173,0 0.342,0.049 0.487,0.143 0.145,0.093 0.26,0.226 0.332,0.383 0.072,0.157 0.097,0.331 0.072,0.502 -0.025,0.171 -0.098,0.331 -0.211,0.461 -0.113,0.13 -0.261,0.226 -0.426,0.274 -0.166,0.049 -0.342,0.049 -0.507,0 -0.166,-0.048 -0.314,-0.144 -0.427,-0.274 -0.113,-0.13 -0.186,-0.29 -0.211,-0.461 -0.024,-0.171 10e-4,-0.345 0.073,-0.502 0.071,-0.157 0.186,-0.29 0.332,-0.383 0.145,-0.094 0.314,-0.143 0.486,-0.143 z"
     stroke="#0000ff"
     stroke-width="0.2"
     id="path465"
     style="fill:none;stroke-linecap:round;stroke-linejoin:round" />
  <path
     d="m 181.37485,13.967673 h -8.4 v -3.9 c 0,-0.055 -0.045,-0.1 -0.1,-0.1 h -8 c -0.055,0 -0.1,0.045 -0.1,0.1 v 3.9 h -8.4 c -0.055,0 -0.1,0.045 -0.1,0.1 v 8.4 h -3.9 c -0.055,0 -0.1,0.045 -0.1,0.1 v 8 c 0,0.055 0.045,0.1 0.1,0.1 h 3.9 v 8.4 c 0,0.055 0.045,0.1 0.1,0.1 0.027,0 0.052,-0.011 0.071,-0.029 l 25,-25 c 0.018,-0.019 0.029,-0.044 0.029,-0.071 0,-0.055 -0.045,-0.1 -0.1,-0.1 z"
     stroke="#000000"
     stroke-width="0.2"
     id="path467"
     style="fill:none;stroke-linecap:round;stroke-linejoin:round" />
  <path
     d="m 164.933,23.333 c -0.172,0 -0.341,-0.049 -0.486,-0.143 -0.145,-0.093 -0.261,-0.226 -0.332,-0.383 -0.072,-0.157 -0.097,-0.331 -0.073,-0.502 0.025,-0.171 0.098,-0.331 0.211,-0.461 0.113,-0.13 0.261,-0.226 0.427,-0.274 0.165,-0.049 0.341,-0.049 0.507,0 0.165,0.048 0.314,0.144 0.427,0.274 0.112,0.13 0.186,0.29 0.21,0.461 0.025,0.171 0,0.345 -0.072,0.502 -0.072,0.157 -0.187,0.29 -0.332,0.383 -0.145,0.094 -0.314,0.143 -0.487,0.143 z"
     stroke="#0000ff"
     stroke-width="0.2"
     id="path469"
     style="fill:none;stroke-linecap:round;stroke-linejoin:round" />
  <path
     d="m 204.245,39.4 h 8.4 v 3.9 c 0,0.055 0.045,0.1 0.1,0.1 h 8 c 0.055,0 0.1,-0.045 0.1,-0.1 v -3.9 h 8.4 c 0.055,0 0.1,-0.045 0.1,-0.1 v -8.4 h 3.9 c 0.055,0 0.1,-0.045 0.1,-0.1 v -8 c 0,-0.055 -0.045,-0.1 -0.1,-0.1 h -3.9 v -8.4 c 0,-0.055 -0.045,-0.1 -0.1,-0.1 -0.026,0 -0.052,0.011 -0.071,0.029 l -25,25 c -0.018,0.019 -0.029,0.044 -0.029,0.071 0,0.055 0.045,0.1 0.1,0.1 z"
     stroke="#000000"
     stroke-width="0.2"
     id="path471"
     style="fill:none;stroke-linecap:round;stroke-linejoin:round" />
  <path
     d="m 220.912,30.067 c 0.172,0 0.341,0.049 0.486,0.143 0.145,0.093 0.261,0.226 0.332,0.383 0.072,0.157 0.097,0.331 0.073,0.502 -0.025,0.171 -0.098,0.331 -0.211,0.461 -0.113,0.13 -0.261,0.226 -0.427,0.274 -0.165,0.049 -0.341,0.049 -0.507,0 -0.165,-0.048 -0.313,-0.144 -0.426,-0.274 -0.113,-0.13 -0.187,-0.29 -0.211,-0.461 -0.025,-0.171 0,-0.345 0.072,-0.502 0.072,-0.157 0.187,-0.29 0.332,-0.383 0.145,-0.094 0.314,-0.143 0.487,-0.143 z"
     stroke="#0000ff"
     stroke-width="0.2"
     id="path473"
     style="fill:none;stroke-linecap:round;stroke-linejoin:round" />
  <path
     d="m 223.023,14 h -8.4 v -3.9 c 0,-0.055 -0.045,-0.1 -0.1,-0.1 h -8 c -0.056,0 -0.1,0.045 -0.1,0.1 V 14 h -8.4 c -0.056,0 -0.1,0.045 -0.1,0.1 v 8.4 h -3.9 c -0.056,0 -0.1,0.045 -0.1,0.1 v 8 c 0,0.055 0.044,0.1 0.1,0.1 h 3.9 v 8.4 c 0,0.055 0.044,0.1 0.1,0.1 0.026,0 0.051,-0.011 0.07,-0.029 l 25,-25 c 0.019,-0.019 0.03,-0.044 0.03,-0.071 0,-0.055 -0.045,-0.1 -0.1,-0.1 z"
     stroke="#000000"
     stroke-width="0.2"
     id="path475"
     style="fill:none;stroke-linecap:round;stroke-linejoin:round" />
  <path
     d="m 206.356,23.333 c -0.173,0 -0.342,-0.049 -0.487,-0.143 -0.145,-0.093 -0.26,-0.226 -0.332,-0.383 -0.071,-0.157 -0.097,-0.331 -0.072,-0.502 0.025,-0.171 0.098,-0.331 0.211,-0.461 0.113,-0.13 0.261,-0.226 0.426,-0.274 0.166,-0.049 0.342,-0.049 0.507,0 0.166,0.048 0.314,0.144 0.427,0.274 0.113,0.13 0.186,0.29 0.211,0.461 0.024,0.171 -0.001,0.345 -0.072,0.502 -0.072,0.157 -0.187,0.29 -0.333,0.383 -0.145,0.094 -0.314,0.143 -0.486,0.143 z"
     stroke="#0000ff"
     stroke-width="0.2"
     id="path477"
     style="fill:none;stroke-linecap:round;stroke-linejoin:round" />
  <rect
     style="fill:none;stroke:#000000;stroke-width:0.221471;stroke-dasharray:none;stroke-opacity:1"
     id="rect1021"
     width="4.9785271"
     height="14.778529"
     x="73.685204"
     y="60.616554" />
  <rect
     style="fill:none;stroke:#000000;stroke-width:0.221471;stroke-dasharray:none;stroke-opacity:1"
     id="rect1023"
     width="4.9785271"
     height="14.778529"
     x="43.798214"
     y="71.729057" />
  <rect
     style="fill:none;stroke:#000000;stroke-width:0.221471;stroke-dasharray:none;stroke-opacity:1"
     id="rect1025"
     width="4.9785271"
     height="14.778529"
     x="29.587206"
     y="119.62856" />
  <rect
     style="fill:none;stroke:#000000;stroke-width:0.221471;stroke-dasharray:none;stroke-opacity:1"
     id="rect1753"
     width="4.9785271"
     height="14.778529"
     x="106.58722"
     y="64.128548" />
  <rect
     style="fill:none;stroke:#000000;stroke-width:0.221471;stroke-dasharray:none;stroke-opacity:1"
     id="rect1755"
     width="4.9785271"
     height="14.778529"
     x="126.58722"
     y="93.628548" />
</svg>
